<?xml version="1.0" encoding="UTF-8" standalone="no"?>
<!DOCTYPE svg PUBLIC "-//W3C//DTD SVG 1.1//EN"
 "http://www.w3.org/Graphics/SVG/1.1/DTD/svg11.dtd">
<!-- Generated by graphviz version 2.40.1 (20161225.0304)
 -->
<!-- Title: G Pages: 1 -->
<svg width="863pt" height="2735pt"
 viewBox="0.00 0.00 863.48 2735.00" xmlns="http://www.w3.org/2000/svg" xmlns:xlink="http://www.w3.org/1999/xlink">
<g id="graph0" class="graph" transform="scale(1 1) rotate(0) translate(4 2731)">
<title>G</title>
<polygon fill="#ffffff" stroke="transparent" points="-4,4 -4,-2731 859.4845,-2731 859.4845,4 -4,4"/>
<!-- A0 -->
<g id="node1" class="node">
<title>A0</title>
<ellipse fill="none" stroke="#000000" cx="299.238" cy="-2716" rx="11" ry="11"/>
</g>
<!-- A1 -->
<g id="node2" class="node">
<title>A1</title>
<polygon fill="none" stroke="#000000" points="299.238,-2668 281.238,-2650 299.238,-2632 317.238,-2650 299.238,-2668"/>
</g>
<!-- A0&#45;&gt;A1 -->
<g id="edge1" class="edge">
<title>A0&#45;&gt;A1</title>
<path fill="none" stroke="#000000" d="M299.238,-2704.804C299.238,-2697.5358 299.238,-2687.7135 299.238,-2678.3916"/>
<polygon fill="#000000" stroke="#000000" points="299.238,-2668.2423 303.7381,-2678.2423 299.238,-2673.2423 299.2381,-2678.2423 299.2381,-2678.2423 299.2381,-2678.2423 299.238,-2673.2423 294.7381,-2678.2424 299.238,-2668.2423 299.238,-2668.2423"/>
</g>
<!-- A2 -->
<g id="node3" class="node">
<title>A2</title>
<path fill="none" stroke="#000000" d="M310.238,-2511C310.238,-2511 280.238,-2511 280.238,-2511 274.238,-2511 268.238,-2505 268.238,-2499 268.238,-2499 268.238,-2487 268.238,-2487 268.238,-2481 274.238,-2475 280.238,-2475 280.238,-2475 310.238,-2475 310.238,-2475 316.238,-2475 322.238,-2481 322.238,-2487 322.238,-2487 322.238,-2499 322.238,-2499 322.238,-2505 316.238,-2511 310.238,-2511"/>
<text text-anchor="middle" x="295.238" y="-2490" font-family="Helvetica,sans-Serif" font-size="10.00" fill="#000000">Login</text>
</g>
<!-- A1&#45;&gt;A2 -->
<g id="edge2" class="edge">
<title>A1&#45;&gt;A2</title>
<path fill="none" stroke="#000000" d="M296.9611,-2634.0374C295.1788,-2620.6961 292.8479,-2601.1519 291.897,-2584 291.0113,-2568.0245 291.4117,-2563.9926 291.897,-2548 292.1581,-2539.3944 292.6486,-2530.0418 293.1749,-2521.5311"/>
<polygon fill="#000000" stroke="#000000" points="293.846,-2511.3207 297.6803,-2521.5943 293.518,-2516.3099 293.19,-2521.2991 293.19,-2521.2991 293.19,-2521.2991 293.518,-2516.3099 288.6997,-2521.0039 293.846,-2511.3207 293.846,-2511.3207"/>
<text text-anchor="middle" x="313.9085" y="-2563" font-family="Helvetica,sans-Serif" font-size="10.00" fill="#000000">[Old user]</text>
</g>
<!-- A3 -->
<g id="node4" class="node">
<title>A3</title>
<path fill="none" stroke="#000000" d="M397.9614,-2584C397.9614,-2584 356.5146,-2584 356.5146,-2584 350.5146,-2584 344.5146,-2578 344.5146,-2572 344.5146,-2572 344.5146,-2560 344.5146,-2560 344.5146,-2554 350.5146,-2548 356.5146,-2548 356.5146,-2548 397.9614,-2548 397.9614,-2548 403.9614,-2548 409.9614,-2554 409.9614,-2560 409.9614,-2560 409.9614,-2572 409.9614,-2572 409.9614,-2578 403.9614,-2584 397.9614,-2584"/>
<text text-anchor="middle" x="377.238" y="-2563" font-family="Helvetica,sans-Serif" font-size="10.00" fill="#000000">Register</text>
</g>
<!-- A1&#45;&gt;A3 -->
<g id="edge3" class="edge">
<title>A1&#45;&gt;A3</title>
<path fill="none" stroke="#000000" d="M308.1856,-2640.3641C319.1212,-2628.5874 338.0554,-2608.1966 353.3343,-2591.7425"/>
<polygon fill="#000000" stroke="#000000" points="360.4901,-2584.0362 356.9831,-2594.4262 357.0878,-2587.7002 353.6855,-2591.3642 353.6855,-2591.3642 353.6855,-2591.3642 357.0878,-2587.7002 350.388,-2588.3021 360.4901,-2584.0362 360.4901,-2584.0362"/>
<text text-anchor="middle" x="366.1285" y="-2605" font-family="Helvetica,sans-Serif" font-size="10.00" fill="#000000">[New user]</text>
</g>
<!-- A4 -->
<g id="node5" class="node">
<title>A4</title>
<path fill="none" stroke="#000000" d="M349.0804,-2438C349.0804,-2438 241.3956,-2438 241.3956,-2438 235.3956,-2438 229.3956,-2432 229.3956,-2426 229.3956,-2426 229.3956,-2414 229.3956,-2414 229.3956,-2408 235.3956,-2402 241.3956,-2402 241.3956,-2402 349.0804,-2402 349.0804,-2402 355.0804,-2402 361.0804,-2408 361.0804,-2414 361.0804,-2414 361.0804,-2426 361.0804,-2426 361.0804,-2432 355.0804,-2438 349.0804,-2438"/>
<text text-anchor="middle" x="295.238" y="-2417" font-family="Helvetica,sans-Serif" font-size="10.00" fill="#000000">Get camera permission</text>
</g>
<!-- A2&#45;&gt;A4 -->
<g id="edge5" class="edge">
<title>A2&#45;&gt;A4</title>
<path fill="none" stroke="#000000" d="M295.238,-2474.9551C295.238,-2466.8828 295.238,-2457.1764 295.238,-2448.1817"/>
<polygon fill="#000000" stroke="#000000" points="295.238,-2438.0904 299.7381,-2448.0903 295.238,-2443.0904 295.2381,-2448.0904 295.2381,-2448.0904 295.2381,-2448.0904 295.238,-2443.0904 290.7381,-2448.0904 295.238,-2438.0904 295.238,-2438.0904"/>
</g>
<!-- A3&#45;&gt;A2 -->
<g id="edge4" class="edge">
<title>A3&#45;&gt;A2</title>
<path fill="none" stroke="#000000" d="M356.9683,-2547.9551C346.8168,-2538.9177 334.3642,-2527.8319 323.3089,-2517.9899"/>
<polygon fill="#000000" stroke="#000000" points="315.5587,-2511.0904 326.02,-2514.3786 319.2932,-2514.415 323.0278,-2517.7397 323.0278,-2517.7397 323.0278,-2517.7397 319.2932,-2514.415 320.0356,-2521.1008 315.5587,-2511.0904 315.5587,-2511.0904"/>
</g>
<!-- A5 -->
<g id="node6" class="node">
<title>A5</title>
<polygon fill="none" stroke="#000000" points="295.238,-2365 277.238,-2347 295.238,-2329 313.238,-2347 295.238,-2365"/>
</g>
<!-- A4&#45;&gt;A5 -->
<g id="edge6" class="edge">
<title>A4&#45;&gt;A5</title>
<path fill="none" stroke="#000000" d="M295.238,-2401.9551C295.238,-2393.8828 295.238,-2384.1764 295.238,-2375.1817"/>
<polygon fill="#000000" stroke="#000000" points="295.238,-2365.0904 299.7381,-2375.0903 295.238,-2370.0904 295.2381,-2375.0904 295.2381,-2375.0904 295.2381,-2375.0904 295.238,-2370.0904 290.7381,-2375.0904 295.238,-2365.0904 295.238,-2365.0904"/>
</g>
<!-- A6 -->
<g id="node7" class="node">
<title>A6</title>
<path fill="none" stroke="#000000" d="M273.5798,-2281C273.5798,-2281 220.8962,-2281 220.8962,-2281 214.8962,-2281 208.8962,-2275 208.8962,-2269 208.8962,-2269 208.8962,-2257 208.8962,-2257 208.8962,-2251 214.8962,-2245 220.8962,-2245 220.8962,-2245 273.5798,-2245 273.5798,-2245 279.5798,-2245 285.5798,-2251 285.5798,-2257 285.5798,-2257 285.5798,-2269 285.5798,-2269 285.5798,-2275 279.5798,-2281 273.5798,-2281"/>
<text text-anchor="middle" x="247.238" y="-2260" font-family="Helvetica,sans-Serif" font-size="10.00" fill="#000000">Local View</text>
</g>
<!-- A5&#45;&gt;A6 -->
<g id="edge7" class="edge">
<title>A5&#45;&gt;A6</title>
<path fill="none" stroke="#000000" d="M288.0676,-2336.1047C283.4902,-2329.0332 277.508,-2319.5714 272.557,-2311 268.7341,-2304.3815 264.7915,-2297.1375 261.189,-2290.329"/>
<polygon fill="#000000" stroke="#000000" points="256.5304,-2281.4144 265.1502,-2288.193 258.8462,-2285.8458 261.1619,-2290.2772 261.1619,-2290.2772 261.1619,-2290.2772 258.8462,-2285.8458 257.1737,-2292.3614 256.5304,-2281.4144 256.5304,-2281.4144"/>
<text text-anchor="middle" x="294.0785" y="-2302" font-family="Helvetica,sans-Serif" font-size="10.00" fill="#000000">[Granted]</text>
</g>
<!-- A8 -->
<g id="node9" class="node">
<title>A8</title>
<path fill="none" stroke="#000000" d="M373.0777,-2281C373.0777,-2281 315.3983,-2281 315.3983,-2281 309.3983,-2281 303.3983,-2275 303.3983,-2269 303.3983,-2269 303.3983,-2257 303.3983,-2257 303.3983,-2251 309.3983,-2245 315.3983,-2245 315.3983,-2245 373.0777,-2245 373.0777,-2245 379.0777,-2245 385.0777,-2251 385.0777,-2257 385.0777,-2257 385.0777,-2269 385.0777,-2269 385.0777,-2275 379.0777,-2281 373.0777,-2281"/>
<text text-anchor="middle" x="344.238" y="-2260" font-family="Helvetica,sans-Serif" font-size="10.00" fill="#000000">Global View</text>
</g>
<!-- A5&#45;&gt;A8 -->
<g id="edge9" class="edge">
<title>A5&#45;&gt;A8</title>
<path fill="none" stroke="#000000" d="M302.0512,-2335.3202C308.8456,-2323.6726 319.5259,-2305.3636 328.4398,-2290.0826"/>
<polygon fill="#000000" stroke="#000000" points="333.7112,-2281.0459 332.5595,-2291.9511 331.1918,-2285.3648 328.6725,-2289.6837 328.6725,-2289.6837 328.6725,-2289.6837 331.1918,-2285.3648 324.7855,-2287.4163 333.7112,-2281.0459 333.7112,-2281.0459"/>
<text text-anchor="middle" x="353.2465" y="-2302" font-family="Helvetica,sans-Serif" font-size="10.00" fill="#000000">[Not Granted]</text>
</g>
<!-- A7 -->
<g id="node8" class="node">
<title>A7</title>
<path fill="none" stroke="#000000" d="M351.658,-2208C351.658,-2208 238.818,-2208 238.818,-2208 232.818,-2208 226.818,-2202 226.818,-2196 226.818,-2196 226.818,-2184 226.818,-2184 226.818,-2178 232.818,-2172 238.818,-2172 238.818,-2172 351.658,-2172 351.658,-2172 357.658,-2172 363.658,-2178 363.658,-2184 363.658,-2184 363.658,-2196 363.658,-2196 363.658,-2202 357.658,-2208 351.658,-2208"/>
<text text-anchor="middle" x="295.238" y="-2187" font-family="Helvetica,sans-Serif" font-size="10.00" fill="#000000">Get device GPS position</text>
</g>
<!-- A6&#45;&gt;A7 -->
<g id="edge8" class="edge">
<title>A6&#45;&gt;A7</title>
<path fill="none" stroke="#000000" d="M259.1032,-2244.9551C264.6994,-2236.4441 271.4902,-2226.1165 277.6674,-2216.7219"/>
<polygon fill="#000000" stroke="#000000" points="283.343,-2208.0904 281.6089,-2218.9183 280.5959,-2212.2681 277.8489,-2216.4459 277.8489,-2216.4459 277.8489,-2216.4459 280.5959,-2212.2681 274.0889,-2213.9736 283.343,-2208.0904 283.343,-2208.0904"/>
</g>
<!-- A9 -->
<g id="node10" class="node">
<title>A9</title>
<polygon fill="none" stroke="#000000" points="295.238,-2124 277.238,-2106 295.238,-2088 313.238,-2106 295.238,-2124"/>
</g>
<!-- A7&#45;&gt;A9 -->
<g id="edge11" class="edge">
<title>A7&#45;&gt;A9</title>
<path fill="none" stroke="#000000" d="M294.024,-2171.6941C293.701,-2166.0251 293.3978,-2159.7566 293.238,-2154 293.0497,-2147.2155 293.1832,-2139.8941 293.4529,-2133.0628"/>
<polygon fill="#000000" stroke="#000000" points="293.9623,-2122.8787 297.957,-2133.0911 293.7125,-2127.8725 293.4626,-2132.8662 293.4626,-2132.8662 293.4626,-2132.8662 293.7125,-2127.8725 288.9683,-2132.6414 293.9623,-2122.8787 293.9623,-2122.8787"/>
</g>
<!-- A8&#45;&gt;A7 -->
<g id="edge10" class="edge">
<title>A8&#45;&gt;A7</title>
<path fill="none" stroke="#000000" d="M332.1256,-2244.9551C326.3539,-2236.3564 319.3375,-2225.9034 312.9798,-2216.4316"/>
<polygon fill="#000000" stroke="#000000" points="307.3808,-2208.0904 316.6905,-2213.8854 310.1675,-2212.2418 312.9541,-2216.3933 312.9541,-2216.3933 312.9541,-2216.3933 310.1675,-2212.2418 309.2178,-2218.9013 307.3808,-2208.0904 307.3808,-2208.0904"/>
</g>
<!-- A9&#45;&gt;A7 -->
<g id="edge12" class="edge">
<title>A9&#45;&gt;A7</title>
<path fill="none" stroke="#000000" d="M295.238,-2124.1912C295.238,-2135.0817 295.238,-2149.1613 295.238,-2161.501"/>
<polygon fill="#000000" stroke="#000000" points="295.238,-2171.7733 290.7381,-2161.7732 295.238,-2166.7733 295.2381,-2161.7733 295.2381,-2161.7733 295.2381,-2161.7733 295.238,-2166.7733 299.7381,-2161.7733 295.238,-2171.7733 295.238,-2171.7733"/>
<text text-anchor="middle" x="306.07" y="-2145" font-family="Helvetica,sans-Serif" font-size="10.00" fill="#000000">[Fail]</text>
</g>
<!-- A10 -->
<g id="node11" class="node">
<title>A10</title>
<path fill="none" stroke="#000000" d="M338.5422,-2040C338.5422,-2040 251.9338,-2040 251.9338,-2040 245.9338,-2040 239.9338,-2034 239.9338,-2028 239.9338,-2028 239.9338,-2016 239.9338,-2016 239.9338,-2010 245.9338,-2004 251.9338,-2004 251.9338,-2004 338.5422,-2004 338.5422,-2004 344.5422,-2004 350.5422,-2010 350.5422,-2016 350.5422,-2016 350.5422,-2028 350.5422,-2028 350.5422,-2034 344.5422,-2040 338.5422,-2040"/>
<text text-anchor="middle" x="295.238" y="-2019" font-family="Helvetica,sans-Serif" font-size="10.00" fill="#000000">Search destination</text>
</g>
<!-- A9&#45;&gt;A10 -->
<g id="edge13" class="edge">
<title>A9&#45;&gt;A10</title>
<path fill="none" stroke="#000000" d="M295.238,-2087.7733C295.238,-2076.8758 295.238,-2062.7946 295.238,-2050.4587"/>
<polygon fill="#000000" stroke="#000000" points="295.238,-2040.1912 299.7381,-2050.1911 295.238,-2045.1912 295.2381,-2050.1912 295.2381,-2050.1912 295.2381,-2050.1912 295.238,-2045.1912 290.7381,-2050.1912 295.238,-2040.1912 295.238,-2040.1912"/>
<text text-anchor="middle" x="316.9105" y="-2061" font-family="Helvetica,sans-Serif" font-size="10.00" fill="#000000">[Success]</text>
</g>
<!-- A11 -->
<g id="node12" class="node">
<title>A11</title>
<polygon fill="none" stroke="#000000" points="234.238,-1967 216.238,-1949 234.238,-1931 252.238,-1949 234.238,-1967"/>
</g>
<!-- A10&#45;&gt;A11 -->
<g id="edge14" class="edge">
<title>A10&#45;&gt;A11</title>
<path fill="none" stroke="#000000" d="M280.1593,-2003.9551C270.7129,-1992.6503 258.5881,-1978.1402 249.1696,-1966.8689"/>
<polygon fill="#000000" stroke="#000000" points="242.5839,-1958.9877 252.4493,-1963.7759 245.79,-1962.8245 248.9961,-1966.6613 248.9961,-1966.6613 248.9961,-1966.6613 245.79,-1962.8245 245.543,-1969.5468 242.5839,-1958.9877 242.5839,-1958.9877"/>
</g>
<!-- A12 -->
<g id="node13" class="node">
<title>A12</title>
<path fill="none" stroke="#000000" d="M313.6881,-1883C313.6881,-1883 244.7879,-1883 244.7879,-1883 238.7879,-1883 232.7879,-1877 232.7879,-1871 232.7879,-1871 232.7879,-1859 232.7879,-1859 232.7879,-1853 238.7879,-1847 244.7879,-1847 244.7879,-1847 313.6881,-1847 313.6881,-1847 319.6881,-1847 325.6881,-1853 325.6881,-1859 325.6881,-1859 325.6881,-1871 325.6881,-1871 325.6881,-1877 319.6881,-1883 313.6881,-1883"/>
<text text-anchor="middle" x="279.238" y="-1862" font-family="Helvetica,sans-Serif" font-size="10.00" fill="#000000">Closest Result</text>
</g>
<!-- A11&#45;&gt;A12 -->
<g id="edge15" class="edge">
<title>A11&#45;&gt;A12</title>
<path fill="none" stroke="#000000" d="M231.3563,-1933.5293C230.2796,-1923.7241 230.3141,-1911.0435 235.2,-1901 237.0467,-1897.2038 239.5048,-1893.6715 242.3184,-1890.421"/>
<polygon fill="#000000" stroke="#000000" points="249.4087,-1883.3558 245.5014,-1893.602 245.8669,-1886.8851 242.325,-1890.4143 242.325,-1890.4143 242.325,-1890.4143 245.8669,-1886.8851 239.1487,-1887.2267 249.4087,-1883.3558 249.4087,-1883.3558"/>
<text text-anchor="middle" x="285.257" y="-1904" font-family="Helvetica,sans-Serif" font-size="10.00" fill="#000000">[Destination not found]</text>
</g>
<!-- A14 -->
<g id="node15" class="node">
<title>A14</title>
<polygon fill="#d3d3d3" stroke="#000000" stroke-width="4" points="200.238,-1710.5 200.238,-1714.5 236.238,-1714.5 236.238,-1710.5 200.238,-1710.5"/>
<text text-anchor="middle" x="208.877" y="-1712.2" font-family="Helvetica,sans-Serif" font-size="1.00" fill="#000000"> </text>
<polyline fill="none" stroke="#000000" stroke-width="4" points="217.5159,-1710.5 217.5159,-1714.5 "/>
<text text-anchor="middle" x="226.6549" y="-1712.2" font-family="Helvetica,sans-Serif" font-size="1.00" fill="#000000"> </text>
</g>
<!-- A11&#45;&gt;A14 -->
<g id="edge17" class="edge">
<title>A11&#45;&gt;A14:n</title>
<path fill="none" stroke="#000000" d="M229.2106,-1935.5753C221.298,-1913.6536 206.2832,-1868.6363 200.876,-1829 194.464,-1781.9986 207.2017,-1767.5273 209.0247,-1724.7241"/>
<polygon fill="#000000" stroke="#000000" points="209.238,-1714.5 213.5283,-1724.5917 209.1337,-1719.4989 209.0293,-1724.4978 209.0293,-1724.4978 209.0293,-1724.4978 209.1337,-1719.4989 204.5303,-1724.4039 209.238,-1714.5 209.238,-1714.5"/>
<text text-anchor="middle" x="242.919" y="-1820" font-family="Helvetica,sans-Serif" font-size="10.00" fill="#000000">[Destination found]</text>
</g>
<!-- A13 -->
<g id="node14" class="node">
<title>A13</title>
<polygon fill="none" stroke="#000000" points="299.238,-1799 281.238,-1781 299.238,-1763 317.238,-1781 299.238,-1799"/>
</g>
<!-- A12&#45;&gt;A13 -->
<g id="edge16" class="edge">
<title>A12&#45;&gt;A13</title>
<path fill="none" stroke="#000000" d="M283.5777,-1846.7733C286.4604,-1834.6657 290.2789,-1818.6281 293.4236,-1805.4206"/>
<polygon fill="#000000" stroke="#000000" points="295.7703,-1795.5642 297.8317,-1806.3346 294.6122,-1800.4283 293.454,-1805.2923 293.454,-1805.2923 293.454,-1805.2923 294.6122,-1800.4283 289.0764,-1804.25 295.7703,-1795.5642 295.7703,-1795.5642"/>
</g>
<!-- A13&#45;&gt;A10 -->
<g id="edge18" class="edge">
<title>A13&#45;&gt;A10</title>
<path fill="none" stroke="#000000" d="M306.8681,-1791.5567C315.4143,-1804.0731 328.7828,-1825.9047 334.238,-1847 347.6082,-1898.7025 325.5415,-1959.7039 309.5307,-1994.3192"/>
<polygon fill="#000000" stroke="#000000" points="305.0062,-2003.7644 305.268,-1992.8017 307.1663,-1999.2551 309.3264,-1994.7457 309.3264,-1994.7457 309.3264,-1994.7457 307.1663,-1999.2551 313.3848,-1996.6898 305.0062,-2003.7644 305.0062,-2003.7644"/>
<text text-anchor="middle" x="372.246" y="-1904" font-family="Helvetica,sans-Serif" font-size="10.00" fill="#000000">[Result refused]</text>
</g>
<!-- A13&#45;&gt;A14 -->
<g id="edge19" class="edge">
<title>A13&#45;&gt;A14:n</title>
<path fill="none" stroke="#000000" d="M285.8487,-1775.9554C267.0792,-1768.0181 234.4589,-1750.7655 227.5477,-1724.5593"/>
<polygon fill="#000000" stroke="#000000" points="226.238,-1714.5 231.9915,-1723.8353 226.8836,-1719.4582 227.5292,-1724.4163 227.5292,-1724.4163 227.5292,-1724.4163 226.8836,-1719.4582 223.0669,-1724.9973 226.238,-1714.5 226.238,-1714.5"/>
<text text-anchor="middle" x="272.302" y="-1736" font-family="Helvetica,sans-Serif" font-size="10.00" fill="#000000">[Result accept]</text>
</g>
<!-- A15 -->
<g id="node16" class="node">
<title>A15</title>
<path fill="none" stroke="#000000" d="M130.7148,-1673C130.7148,-1673 11.7612,-1673 11.7612,-1673 5.7612,-1673 -.2388,-1667 -.2388,-1661 -.2388,-1661 -.2388,-1649 -.2388,-1649 -.2388,-1643 5.7612,-1637 11.7612,-1637 11.7612,-1637 130.7148,-1637 130.7148,-1637 136.7148,-1637 142.7148,-1643 142.7148,-1649 142.7148,-1649 142.7148,-1661 142.7148,-1661 142.7148,-1667 136.7148,-1673 130.7148,-1673"/>
<text text-anchor="middle" x="71.238" y="-1652" font-family="Helvetica,sans-Serif" font-size="10.00" fill="#000000">Center destination to map</text>
</g>
<!-- A14&#45;&gt;A15 -->
<g id="edge20" class="edge">
<title>A14&#45;&gt;A15</title>
<path fill="none" stroke="#000000" d="M213.0062,-1710.4535C199.2273,-1705.0638 160.6975,-1689.9927 127.2789,-1676.9208"/>
<polygon fill="#000000" stroke="#000000" points="117.5606,-1673.1194 128.5127,-1672.5714 122.217,-1674.9408 126.8735,-1676.7622 126.8735,-1676.7622 126.8735,-1676.7622 122.217,-1674.9408 125.2342,-1680.953 117.5606,-1673.1194 117.5606,-1673.1194"/>
</g>
<!-- A17 -->
<g id="node18" class="node">
<title>A17</title>
<path fill="none" stroke="#000000" d="M451.783,-1673C451.783,-1673 172.693,-1673 172.693,-1673 166.693,-1673 160.693,-1667 160.693,-1661 160.693,-1661 160.693,-1649 160.693,-1649 160.693,-1643 166.693,-1637 172.693,-1637 172.693,-1637 451.783,-1637 451.783,-1637 457.783,-1637 463.783,-1643 463.783,-1649 463.783,-1649 463.783,-1661 463.783,-1661 463.783,-1667 457.783,-1673 451.783,-1673"/>
<text text-anchor="middle" x="312.238" y="-1652" font-family="Helvetica,sans-Serif" font-size="10.00" fill="#000000">Display Overlay Information, User Pin Feed, Navigation option</text>
</g>
<!-- A14&#45;&gt;A17 -->
<g id="edge22" class="edge">
<title>A14&#45;&gt;A17</title>
<path fill="none" stroke="#000000" d="M221.8081,-1710.3161C230.4352,-1705.039 253.2218,-1691.1003 273.7615,-1678.5362"/>
<polygon fill="#000000" stroke="#000000" points="282.3788,-1673.265 276.1964,-1682.3219 278.1135,-1675.8741 273.8482,-1678.4832 273.8482,-1678.4832 273.8482,-1678.4832 278.1135,-1675.8741 271.5,-1674.6444 282.3788,-1673.265 282.3788,-1673.265"/>
</g>
<!-- A16 -->
<g id="node17" class="node">
<title>A16</title>
<polygon fill="#d3d3d3" stroke="#000000" stroke-width="4" points="201.238,-1595.5 201.238,-1599.5 237.238,-1599.5 237.238,-1595.5 201.238,-1595.5"/>
<text text-anchor="middle" x="209.877" y="-1597.2" font-family="Helvetica,sans-Serif" font-size="1.00" fill="#000000"> </text>
<polyline fill="none" stroke="#000000" stroke-width="4" points="218.5159,-1595.5 218.5159,-1599.5 "/>
<text text-anchor="middle" x="227.6549" y="-1597.2" font-family="Helvetica,sans-Serif" font-size="1.00" fill="#000000"> </text>
</g>
<!-- A15&#45;&gt;A16 -->
<g id="edge21" class="edge">
<title>A15&#45;&gt;A16:n</title>
<path fill="none" stroke="#000000" d="M142.7739,-1639.1484C169.9141,-1631.4296 196.64,-1621.1895 206.3776,-1609.0971"/>
<polygon fill="#000000" stroke="#000000" points="210.238,-1599.5 210.6809,-1610.4569 208.372,-1604.1388 206.506,-1608.7776 206.506,-1608.7776 206.506,-1608.7776 208.372,-1604.1388 202.3311,-1607.0982 210.238,-1599.5 210.238,-1599.5"/>
</g>
<!-- A18 -->
<g id="node19" class="node">
<title>A18</title>
<path fill="none" stroke="#000000" d="M264.9823,-1558C264.9823,-1558 173.4937,-1558 173.4937,-1558 167.4937,-1558 161.4937,-1552 161.4937,-1546 161.4937,-1546 161.4937,-1534 161.4937,-1534 161.4937,-1528 167.4937,-1522 173.4937,-1522 173.4937,-1522 264.9823,-1522 264.9823,-1522 270.9823,-1522 276.9823,-1528 276.9823,-1534 276.9823,-1534 276.9823,-1546 276.9823,-1546 276.9823,-1552 270.9823,-1558 264.9823,-1558"/>
<text text-anchor="middle" x="219.238" y="-1537" font-family="Helvetica,sans-Serif" font-size="10.00" fill="#000000">Request Navigation</text>
</g>
<!-- A16&#45;&gt;A18 -->
<g id="edge24" class="edge">
<title>A16&#45;&gt;A18</title>
<path fill="none" stroke="#000000" d="M219.238,-1595.0293C219.238,-1590.2727 219.238,-1579.3488 219.238,-1568.4769"/>
<polygon fill="#000000" stroke="#000000" points="219.238,-1558.2724 223.7381,-1568.2723 219.238,-1563.2724 219.2381,-1568.2724 219.2381,-1568.2724 219.2381,-1568.2724 219.238,-1563.2724 214.7381,-1568.2724 219.238,-1558.2724 219.238,-1558.2724"/>
</g>
<!-- A17&#45;&gt;A16 -->
<g id="edge23" class="edge">
<title>A17&#45;&gt;A16:n</title>
<path fill="none" stroke="#000000" d="M254.1325,-1636.8877C242.3428,-1630.2327 232.4137,-1621.336 228.7494,-1609.5667"/>
<polygon fill="#000000" stroke="#000000" points="227.238,-1599.5 233.173,-1608.721 227.9804,-1604.4446 228.7228,-1609.3892 228.7228,-1609.3892 228.7228,-1609.3892 227.9804,-1604.4446 224.2727,-1610.0573 227.238,-1599.5 227.238,-1599.5"/>
</g>
<!-- A19 -->
<g id="node20" class="node">
<title>A19</title>
<path fill="none" stroke="#000000" d="M271.9294,-1485C271.9294,-1485 166.5466,-1485 166.5466,-1485 160.5466,-1485 154.5466,-1479 154.5466,-1473 154.5466,-1473 154.5466,-1461 154.5466,-1461 154.5466,-1455 160.5466,-1449 166.5466,-1449 166.5466,-1449 271.9294,-1449 271.9294,-1449 277.9294,-1449 283.9294,-1455 283.9294,-1461 283.9294,-1461 283.9294,-1473 283.9294,-1473 283.9294,-1479 277.9294,-1485 271.9294,-1485"/>
<text text-anchor="middle" x="219.238" y="-1464" font-family="Helvetica,sans-Serif" font-size="10.00" fill="#000000">Calculate safest routes</text>
</g>
<!-- A18&#45;&gt;A19 -->
<g id="edge25" class="edge">
<title>A18&#45;&gt;A19</title>
<path fill="none" stroke="#000000" d="M219.238,-1521.9551C219.238,-1513.8828 219.238,-1504.1764 219.238,-1495.1817"/>
<polygon fill="#000000" stroke="#000000" points="219.238,-1485.0904 223.7381,-1495.0903 219.238,-1490.0904 219.2381,-1495.0904 219.2381,-1495.0904 219.2381,-1495.0904 219.238,-1490.0904 214.7381,-1495.0904 219.238,-1485.0904 219.238,-1485.0904"/>
</g>
<!-- A20 -->
<g id="node21" class="node">
<title>A20</title>
<path fill="none" stroke="#000000" d="M256.189,-1412C256.189,-1412 182.287,-1412 182.287,-1412 176.287,-1412 170.287,-1406 170.287,-1400 170.287,-1400 170.287,-1388 170.287,-1388 170.287,-1382 176.287,-1376 182.287,-1376 182.287,-1376 256.189,-1376 256.189,-1376 262.189,-1376 268.189,-1382 268.189,-1388 268.189,-1388 268.189,-1400 268.189,-1400 268.189,-1406 262.189,-1412 256.189,-1412"/>
<text text-anchor="middle" x="219.238" y="-1391" font-family="Helvetica,sans-Serif" font-size="10.00" fill="#000000">Display choices</text>
</g>
<!-- A19&#45;&gt;A20 -->
<g id="edge26" class="edge">
<title>A19&#45;&gt;A20</title>
<path fill="none" stroke="#000000" d="M219.238,-1448.9551C219.238,-1440.8828 219.238,-1431.1764 219.238,-1422.1817"/>
<polygon fill="#000000" stroke="#000000" points="219.238,-1412.0904 223.7381,-1422.0903 219.238,-1417.0904 219.2381,-1422.0904 219.2381,-1422.0904 219.2381,-1422.0904 219.238,-1417.0904 214.7381,-1422.0904 219.238,-1412.0904 219.238,-1412.0904"/>
</g>
<!-- A21 -->
<g id="node22" class="node">
<title>A21</title>
<polygon fill="none" stroke="#000000" points="219.238,-1339 201.238,-1321 219.238,-1303 237.238,-1321 219.238,-1339"/>
</g>
<!-- A20&#45;&gt;A21 -->
<g id="edge27" class="edge">
<title>A20&#45;&gt;A21</title>
<path fill="none" stroke="#000000" d="M219.238,-1375.9551C219.238,-1367.8828 219.238,-1358.1764 219.238,-1349.1817"/>
<polygon fill="#000000" stroke="#000000" points="219.238,-1339.0904 223.7381,-1349.0903 219.238,-1344.0904 219.2381,-1349.0904 219.2381,-1349.0904 219.2381,-1349.0904 219.238,-1344.0904 214.7381,-1349.0904 219.238,-1339.0904 219.238,-1339.0904"/>
</g>
<!-- A22 -->
<g id="node23" class="node">
<title>A22</title>
<path fill="none" stroke="#000000" d="M192.781,-1255C192.781,-1255 53.695,-1255 53.695,-1255 47.695,-1255 41.695,-1249 41.695,-1243 41.695,-1243 41.695,-1231 41.695,-1231 41.695,-1225 47.695,-1219 53.695,-1219 53.695,-1219 192.781,-1219 192.781,-1219 198.781,-1219 204.781,-1225 204.781,-1231 204.781,-1231 204.781,-1243 204.781,-1243 204.781,-1249 198.781,-1255 192.781,-1255"/>
<text text-anchor="middle" x="123.238" y="-1234" font-family="Helvetica,sans-Serif" font-size="10.00" fill="#000000">navigate with the safest routes</text>
</g>
<!-- A21&#45;&gt;A22 -->
<g id="edge28" class="edge">
<title>A21&#45;&gt;A22</title>
<path fill="none" stroke="#000000" d="M209.3259,-1312.3269C195.8524,-1300.5376 171.2044,-1278.9706 151.7242,-1261.9254"/>
<polygon fill="#000000" stroke="#000000" points="144.0094,-1255.175 154.4985,-1258.3735 147.7723,-1258.4676 151.5352,-1261.7601 151.5352,-1261.7601 151.5352,-1261.7601 147.7723,-1258.4676 148.572,-1265.1467 144.0094,-1255.175 144.0094,-1255.175"/>
<text text-anchor="middle" x="195.8535" y="-1276" font-family="Helvetica,sans-Serif" font-size="10.00" fill="#000000">[Default]</text>
</g>
<!-- A24 -->
<g id="node25" class="node">
<title>A24</title>
<path fill="none" stroke="#000000" d="M396.0082,-1255C396.0082,-1255 234.4678,-1255 234.4678,-1255 228.4678,-1255 222.4678,-1249 222.4678,-1243 222.4678,-1243 222.4678,-1231 222.4678,-1231 222.4678,-1225 228.4678,-1219 234.4678,-1219 234.4678,-1219 396.0082,-1219 396.0082,-1219 402.0082,-1219 408.0082,-1225 408.0082,-1231 408.0082,-1231 408.0082,-1243 408.0082,-1243 408.0082,-1249 402.0082,-1255 396.0082,-1255"/>
<text text-anchor="middle" x="315.238" y="-1234" font-family="Helvetica,sans-Serif" font-size="10.00" fill="#000000">navigate with the user chose routes</text>
</g>
<!-- A21&#45;&gt;A24 -->
<g id="edge30" class="edge">
<title>A21&#45;&gt;A24</title>
<path fill="none" stroke="#000000" d="M229.1501,-1312.3269C242.6236,-1300.5376 267.2716,-1278.9706 286.7518,-1261.9254"/>
<polygon fill="#000000" stroke="#000000" points="294.4666,-1255.175 289.904,-1265.1467 290.7037,-1258.4676 286.9408,-1261.7601 286.9408,-1261.7601 286.9408,-1261.7601 290.7037,-1258.4676 283.9775,-1258.3735 294.4666,-1255.175 294.4666,-1255.175"/>
<text text-anchor="middle" x="301.8525" y="-1276" font-family="Helvetica,sans-Serif" font-size="10.00" fill="#000000">[User Select]</text>
</g>
<!-- A23 -->
<g id="node24" class="node">
<title>A23</title>
<polygon fill="#d3d3d3" stroke="#000000" stroke-width="4" points="222.238,-1177.5 222.238,-1181.5 258.238,-1181.5 258.238,-1177.5 222.238,-1177.5"/>
<text text-anchor="middle" x="230.877" y="-1179.2" font-family="Helvetica,sans-Serif" font-size="1.00" fill="#000000"> </text>
<polyline fill="none" stroke="#000000" stroke-width="4" points="239.5159,-1177.5 239.5159,-1181.5 "/>
<text text-anchor="middle" x="248.6549" y="-1179.2" font-family="Helvetica,sans-Serif" font-size="1.00" fill="#000000"> </text>
</g>
<!-- A22&#45;&gt;A23 -->
<g id="edge29" class="edge">
<title>A22&#45;&gt;A23:n</title>
<path fill="none" stroke="#000000" d="M204.8182,-1219.0421C216.9335,-1212.5044 226.5169,-1203.5905 229.9102,-1191.4383"/>
<polygon fill="#000000" stroke="#000000" points="231.238,-1181.5 234.374,-1192.0079 230.5758,-1186.456 229.9137,-1191.4119 229.9137,-1191.4119 229.9137,-1191.4119 230.5758,-1186.456 225.4533,-1190.816 231.238,-1181.5 231.238,-1181.5"/>
</g>
<!-- A25 -->
<g id="node26" class="node">
<title>A25</title>
<path fill="none" stroke="#000000" d="M292.9284,-1140C292.9284,-1140 187.5476,-1140 187.5476,-1140 181.5476,-1140 175.5476,-1134 175.5476,-1128 175.5476,-1128 175.5476,-1116 175.5476,-1116 175.5476,-1110 181.5476,-1104 187.5476,-1104 187.5476,-1104 292.9284,-1104 292.9284,-1104 298.9284,-1104 304.9284,-1110 304.9284,-1116 304.9284,-1116 304.9284,-1128 304.9284,-1128 304.9284,-1134 298.9284,-1140 292.9284,-1140"/>
<text text-anchor="middle" x="240.238" y="-1119" font-family="Helvetica,sans-Serif" font-size="10.00" fill="#000000">Enter Navigation Mode</text>
</g>
<!-- A23&#45;&gt;A25 -->
<g id="edge32" class="edge">
<title>A23&#45;&gt;A25</title>
<path fill="none" stroke="#000000" d="M240.238,-1177.0293C240.238,-1172.2727 240.238,-1161.3488 240.238,-1150.4769"/>
<polygon fill="#000000" stroke="#000000" points="240.238,-1140.2724 244.7381,-1150.2723 240.238,-1145.2724 240.2381,-1150.2724 240.2381,-1150.2724 240.2381,-1150.2724 240.238,-1145.2724 235.7381,-1150.2724 240.238,-1140.2724 240.238,-1140.2724"/>
</g>
<!-- A24&#45;&gt;A23 -->
<g id="edge31" class="edge">
<title>A24&#45;&gt;A23:n</title>
<path fill="none" stroke="#000000" d="M273.5678,-1218.907C262.9232,-1211.9554 253.4507,-1202.8986 249.8159,-1191.5624"/>
<polygon fill="#000000" stroke="#000000" points="248.238,-1181.5 254.2329,-1190.6821 249.0126,-1186.4396 249.7872,-1191.3793 249.7872,-1191.3793 249.7872,-1191.3793 249.0126,-1186.4396 245.3416,-1192.0764 248.238,-1181.5 248.238,-1181.5"/>
</g>
<!-- A26 -->
<g id="node27" class="node">
<title>A26</title>
<polygon fill="none" stroke="#000000" points="240.238,-1067 222.238,-1049 240.238,-1031 258.238,-1049 240.238,-1067"/>
</g>
<!-- A25&#45;&gt;A26 -->
<g id="edge33" class="edge">
<title>A25&#45;&gt;A26</title>
<path fill="none" stroke="#000000" d="M240.238,-1103.9551C240.238,-1095.8828 240.238,-1086.1764 240.238,-1077.1817"/>
<polygon fill="#000000" stroke="#000000" points="240.238,-1067.0904 244.7381,-1077.0903 240.238,-1072.0904 240.2381,-1077.0904 240.2381,-1077.0904 240.2381,-1077.0904 240.238,-1072.0904 235.7381,-1077.0904 240.238,-1067.0904 240.238,-1067.0904"/>
</g>
<!-- A27 -->
<g id="node28" class="node">
<title>A27</title>
<path fill="none" stroke="#000000" d="M218.5401,-983C218.5401,-983 81.9359,-983 81.9359,-983 75.9359,-983 69.9359,-977 69.9359,-971 69.9359,-971 69.9359,-959 69.9359,-959 69.9359,-953 75.9359,-947 81.9359,-947 81.9359,-947 218.5401,-947 218.5401,-947 224.5401,-947 230.5401,-953 230.5401,-959 230.5401,-959 230.5401,-971 230.5401,-971 230.5401,-977 224.5401,-983 218.5401,-983"/>
<text text-anchor="middle" x="150.238" y="-962" font-family="Helvetica,sans-Serif" font-size="10.00" fill="#000000">Start Navigation in Local View</text>
</g>
<!-- A26&#45;&gt;A27 -->
<g id="edge34" class="edge">
<title>A26&#45;&gt;A27</title>
<path fill="none" stroke="#000000" d="M226.0102,-1044.9861C210.3643,-1039.9052 185.405,-1029.7371 170.003,-1013 164.7166,-1007.2554 160.7448,-999.9025 157.8031,-992.6875"/>
<polygon fill="#000000" stroke="#000000" points="154.4036,-983.0982 161.9864,-991.0198 156.0743,-987.8109 157.745,-992.5235 157.745,-992.5235 157.745,-992.5235 156.0743,-987.8109 153.5037,-994.0271 154.4036,-983.0982 154.4036,-983.0982"/>
<text text-anchor="middle" x="236.3555" y="-1004" font-family="Helvetica,sans-Serif" font-size="10.00" fill="#000000">[Camera Permission Granted]</text>
</g>
<!-- A29 -->
<g id="node30" class="node">
<title>A29</title>
<path fill="none" stroke="#000000" d="M402.0381,-983C402.0381,-983 260.4379,-983 260.4379,-983 254.4379,-983 248.4379,-977 248.4379,-971 248.4379,-971 248.4379,-959 248.4379,-959 248.4379,-953 254.4379,-947 260.4379,-947 260.4379,-947 402.0381,-947 402.0381,-947 408.0381,-947 414.0381,-953 414.0381,-959 414.0381,-959 414.0381,-971 414.0381,-971 414.0381,-977 408.0381,-983 402.0381,-983"/>
<text text-anchor="middle" x="331.238" y="-962" font-family="Helvetica,sans-Serif" font-size="10.00" fill="#000000">Start Navigation in Global View</text>
</g>
<!-- A26&#45;&gt;A29 -->
<g id="edge36" class="edge">
<title>A26&#45;&gt;A29</title>
<path fill="none" stroke="#000000" d="M253.3599,-1043.7199C266.8485,-1037.7954 287.8564,-1027.1334 302.238,-1013 308.2925,-1007.0501 313.5867,-999.5853 317.9362,-992.3277"/>
<polygon fill="#000000" stroke="#000000" points="322.9266,-983.3752 321.9882,-994.3008 320.4921,-987.7425 318.0576,-992.1098 318.0576,-992.1098 318.0576,-992.1098 320.4921,-987.7425 314.127,-989.9188 322.9266,-983.3752 322.9266,-983.3752"/>
<text text-anchor="middle" x="387.5235" y="-1004" font-family="Helvetica,sans-Serif" font-size="10.00" fill="#000000">[Camera Permission Not Granted]</text>
</g>
<!-- A28 -->
<g id="node29" class="node">
<title>A28</title>
<polygon fill="#d3d3d3" stroke="#000000" stroke-width="4" points="242.238,-905.5 242.238,-909.5 278.238,-909.5 278.238,-905.5 242.238,-905.5"/>
<text text-anchor="middle" x="250.877" y="-907.2" font-family="Helvetica,sans-Serif" font-size="1.00" fill="#000000"> </text>
<polyline fill="none" stroke="#000000" stroke-width="4" points="259.5159,-905.5 259.5159,-909.5 "/>
<text text-anchor="middle" x="268.6549" y="-907.2" font-family="Helvetica,sans-Serif" font-size="1.00" fill="#000000"> </text>
</g>
<!-- A27&#45;&gt;A28 -->
<g id="edge35" class="edge">
<title>A27&#45;&gt;A28:n</title>
<path fill="none" stroke="#000000" d="M224.437,-946.9884C236.4858,-940.4911 246.2069,-931.6818 249.7719,-919.752"/>
<polygon fill="#000000" stroke="#000000" points="251.238,-909.5 254.2769,-920.0364 250.5301,-914.4496 249.8223,-919.3993 249.8223,-919.3993 249.8223,-919.3993 250.5301,-914.4496 245.3676,-918.7622 251.238,-909.5 251.238,-909.5"/>
</g>
<!-- A30 -->
<g id="node31" class="node">
<title>A30</title>
<path fill="none" stroke="#000000" d="M316.638,-868C316.638,-868 203.838,-868 203.838,-868 197.838,-868 191.838,-862 191.838,-856 191.838,-856 191.838,-844 191.838,-844 191.838,-838 197.838,-832 203.838,-832 203.838,-832 316.638,-832 316.638,-832 322.638,-832 328.638,-838 328.638,-844 328.638,-844 328.638,-856 328.638,-856 328.638,-862 322.638,-868 316.638,-868"/>
<text text-anchor="middle" x="260.238" y="-847" font-family="Helvetica,sans-Serif" font-size="10.00" fill="#000000">Show Navigation Arrows</text>
</g>
<!-- A28&#45;&gt;A30 -->
<g id="edge38" class="edge">
<title>A28&#45;&gt;A30</title>
<path fill="none" stroke="#000000" d="M260.238,-905.0293C260.238,-900.2727 260.238,-889.3488 260.238,-878.4769"/>
<polygon fill="#000000" stroke="#000000" points="260.238,-868.2724 264.7381,-878.2723 260.238,-873.2724 260.2381,-878.2724 260.2381,-878.2724 260.2381,-878.2724 260.238,-873.2724 255.7381,-878.2724 260.238,-868.2724 260.238,-868.2724"/>
</g>
<!-- A29&#45;&gt;A28 -->
<g id="edge37" class="edge">
<title>A29&#45;&gt;A28:n</title>
<path fill="none" stroke="#000000" d="M292.7758,-946.833C282.5285,-939.7824 273.3159,-930.6595 269.7758,-919.4295"/>
<polygon fill="#000000" stroke="#000000" points="268.238,-909.5 274.2155,-918.6935 269.0033,-914.4411 269.7685,-919.3822 269.7685,-919.3822 269.7685,-919.3822 269.0033,-914.4411 265.3215,-920.0709 268.238,-909.5 268.238,-909.5"/>
</g>
<!-- A31 -->
<g id="node32" class="node">
<title>A31</title>
<polygon fill="none" stroke="#000000" points="260.238,-795 242.238,-777 260.238,-759 278.238,-777 260.238,-795"/>
</g>
<!-- A30&#45;&gt;A31 -->
<g id="edge39" class="edge">
<title>A30&#45;&gt;A31</title>
<path fill="none" stroke="#000000" d="M260.238,-831.9551C260.238,-823.8828 260.238,-814.1764 260.238,-805.1817"/>
<polygon fill="#000000" stroke="#000000" points="260.238,-795.0904 264.7381,-805.0903 260.238,-800.0904 260.2381,-805.0904 260.2381,-805.0904 260.2381,-805.0904 260.238,-800.0904 255.7381,-805.0904 260.238,-795.0904 260.238,-795.0904"/>
</g>
<!-- A32 -->
<g id="node33" class="node">
<title>A32</title>
<polygon fill="#d3d3d3" stroke="#000000" stroke-width="4" points="243.238,-706.5 243.238,-710.5 279.238,-710.5 279.238,-706.5 243.238,-706.5"/>
<text text-anchor="middle" x="251.877" y="-708.2" font-family="Helvetica,sans-Serif" font-size="1.00" fill="#000000"> </text>
<polyline fill="none" stroke="#000000" stroke-width="4" points="260.5159,-706.5 260.5159,-710.5 "/>
<text text-anchor="middle" x="269.6549" y="-708.2" font-family="Helvetica,sans-Serif" font-size="1.00" fill="#000000"> </text>
</g>
<!-- A31&#45;&gt;A32 -->
<g id="edge40" class="edge">
<title>A31&#45;&gt;A32:n</title>
<path fill="none" stroke="#000000" d="M244.7862,-774.1206C227.7368,-770.028 201.108,-760.715 188.98,-741 186.1855,-736.4574 185.7815,-733.2678 188.98,-729 203.8021,-709.2223 238.6462,-730.5027 249.1731,-720.0404"/>
<polygon fill="#000000" stroke="#000000" points="252.238,-710.5 253.4637,-721.3972 250.7087,-715.2604 249.1793,-720.0208 249.1793,-720.0208 249.1793,-720.0208 250.7087,-715.2604 244.895,-718.6444 252.238,-710.5 252.238,-710.5"/>
<text text-anchor="middle" x="250.367" y="-732" font-family="Helvetica,sans-Serif" font-size="10.00" fill="#000000">[Navigation ends by cancel]</text>
</g>
<!-- A31&#45;&gt;A32 -->
<g id="edge41" class="edge">
<title>A31&#45;&gt;A32:n</title>
<path fill="none" stroke="#000000" d="M273.4738,-771.8965C285.7794,-766.3537 303.36,-756.204 311.238,-741 313.6917,-736.2646 314.1516,-733.4671 311.238,-729 302.7936,-716.0532 283.028,-723.8184 273.9493,-719.4623"/>
<polygon fill="#000000" stroke="#000000" points="269.238,-710.5 277.8743,-717.2576 271.5646,-714.9258 273.8911,-719.3515 273.8911,-719.3515 273.8911,-719.3515 271.5646,-714.9258 269.9079,-721.4454 269.238,-710.5 269.238,-710.5"/>
<text text-anchor="middle" x="374.526" y="-732" font-family="Helvetica,sans-Serif" font-size="10.00" fill="#000000">[Navigation ends by arrival]</text>
</g>
<!-- A33 -->
<g id="node34" class="node">
<title>A33</title>
<path fill="none" stroke="#000000" d="M310.8117,-669C310.8117,-669 211.6643,-669 211.6643,-669 205.6643,-669 199.6643,-663 199.6643,-657 199.6643,-657 199.6643,-645 199.6643,-645 199.6643,-639 205.6643,-633 211.6643,-633 211.6643,-633 310.8117,-633 310.8117,-633 316.8117,-633 322.8117,-639 322.8117,-645 322.8117,-645 322.8117,-657 322.8117,-657 322.8117,-663 316.8117,-669 310.8117,-669"/>
<text text-anchor="middle" x="261.238" y="-648" font-family="Helvetica,sans-Serif" font-size="10.00" fill="#000000">Navigation completes</text>
</g>
<!-- A32&#45;&gt;A33 -->
<g id="edge42" class="edge">
<title>A32&#45;&gt;A33</title>
<path fill="none" stroke="#000000" d="M261.238,-706.0293C261.238,-701.2727 261.238,-690.3488 261.238,-679.4769"/>
<polygon fill="#000000" stroke="#000000" points="261.238,-669.2724 265.7381,-679.2723 261.238,-674.2724 261.2381,-679.2724 261.2381,-679.2724 261.2381,-679.2724 261.238,-674.2724 256.7381,-679.2724 261.238,-669.2724 261.238,-669.2724"/>
</g>
<!-- A34 -->
<g id="node35" class="node">
<title>A34</title>
<polygon fill="none" stroke="#000000" points="261.238,-596 243.238,-578 261.238,-560 279.238,-578 261.238,-596"/>
</g>
<!-- A33&#45;&gt;A34 -->
<g id="edge43" class="edge">
<title>A33&#45;&gt;A34</title>
<path fill="none" stroke="#000000" d="M261.238,-632.9551C261.238,-624.8828 261.238,-615.1764 261.238,-606.1817"/>
<polygon fill="#000000" stroke="#000000" points="261.238,-596.0904 265.7381,-606.0903 261.238,-601.0904 261.2381,-606.0904 261.2381,-606.0904 261.2381,-606.0904 261.238,-601.0904 256.7381,-606.0904 261.238,-596.0904 261.238,-596.0904"/>
</g>
<!-- A35 -->
<g id="node36" class="node">
<title>A35</title>
<ellipse fill="none" stroke="#000000" cx="381.238" cy="-15" rx="11" ry="11"/>
<ellipse fill="none" stroke="#000000" cx="381.238" cy="-15" rx="15" ry="15"/>
</g>
<!-- A34&#45;&gt;A35 -->
<g id="edge44" class="edge">
<title>A34&#45;&gt;A35</title>
<path fill="none" stroke="#000000" d="M256.2632,-564.8247C251.5664,-551.1863 245.238,-529.1621 245.238,-509.5 245.238,-509.5 245.238,-509.5 245.238,-69.5 245.238,-45.7921 317.3477,-27.7136 356.5521,-19.6367"/>
<polygon fill="#000000" stroke="#000000" points="366.4247,-17.6707 357.4962,-24.0372 361.521,-18.6473 356.6173,-19.6238 356.6173,-19.6238 356.6173,-19.6238 361.521,-18.6473 355.7384,-15.2105 366.4247,-17.6707 366.4247,-17.6707"/>
<text text-anchor="middle" x="286.9135" y="-292" font-family="Helvetica,sans-Serif" font-size="10.00" fill="#000000">[User did not login]</text>
</g>
<!-- A36 -->
<g id="node37" class="node">
<title>A36</title>
<polygon fill="#d3d3d3" stroke="#000000" stroke-width="4" points="371.238,-507.5 371.238,-511.5 407.238,-511.5 407.238,-507.5 371.238,-507.5"/>
<text text-anchor="middle" x="388.877" y="-509.2" font-family="Helvetica,sans-Serif" font-size="1.00" fill="#000000"> </text>
</g>
<!-- A34&#45;&gt;A36 -->
<g id="edge45" class="edge">
<title>A34&#45;&gt;A36:n</title>
<path fill="none" stroke="#000000" d="M278.2354,-576.9174C310.5377,-573.9178 378.443,-562.7482 388.0888,-521.6572"/>
<polygon fill="#000000" stroke="#000000" points="389.238,-511.5 392.5851,-521.9426 388.6758,-516.4683 388.1137,-521.4366 388.1137,-521.4366 388.1137,-521.4366 388.6758,-516.4683 383.6422,-520.9307 389.238,-511.5 389.238,-511.5"/>
<text text-anchor="middle" x="472.976" y="-533" font-family="Helvetica,sans-Serif" font-size="10.00" fill="#000000">[User logged in and agress privacy term]</text>
</g>
<!-- A37 -->
<g id="node38" class="node">
<title>A37</title>
<path fill="none" stroke="#000000" d="M493.7295,-470C493.7295,-470 284.7465,-470 284.7465,-470 278.7465,-470 272.7465,-464 272.7465,-458 272.7465,-458 272.7465,-446 272.7465,-446 272.7465,-440 278.7465,-434 284.7465,-434 284.7465,-434 493.7295,-434 493.7295,-434 499.7295,-434 505.7295,-440 505.7295,-446 505.7295,-446 505.7295,-458 505.7295,-458 505.7295,-464 499.7295,-470 493.7295,-470"/>
<text text-anchor="middle" x="389.238" y="-449" font-family="Helvetica,sans-Serif" font-size="10.00" fill="#000000">Navigation journey add to TravelAR DataBase</text>
</g>
<!-- A36&#45;&gt;A37 -->
<g id="edge46" class="edge">
<title>A36&#45;&gt;A37</title>
<path fill="none" stroke="#000000" d="M389.238,-507.0293C389.238,-502.2727 389.238,-491.3488 389.238,-480.4769"/>
<polygon fill="#000000" stroke="#000000" points="389.238,-470.2724 393.7381,-480.2723 389.238,-475.2724 389.2381,-480.2724 389.2381,-480.2724 389.2381,-480.2724 389.238,-475.2724 384.7381,-480.2724 389.238,-470.2724 389.238,-470.2724"/>
</g>
<!-- A39 -->
<g id="node40" class="node">
<title>A39</title>
<path fill="none" stroke="#000000" d="M843.7314,-470C843.7314,-470 534.7446,-470 534.7446,-470 528.7446,-470 522.7446,-464 522.7446,-458 522.7446,-458 522.7446,-446 522.7446,-446 522.7446,-440 528.7446,-434 534.7446,-434 534.7446,-434 843.7314,-434 843.7314,-434 849.7314,-434 855.7314,-440 855.7314,-446 855.7314,-446 855.7314,-458 855.7314,-458 855.7314,-464 849.7314,-470 843.7314,-470"/>
<text text-anchor="middle" x="689.238" y="-449" font-family="Helvetica,sans-Serif" font-size="10.00" fill="#000000">Navigation journey add to User TravelAR Account Navigation History</text>
</g>
<!-- A36&#45;&gt;A39 -->
<g id="edge48" class="edge">
<title>A36&#45;&gt;A39</title>
<path fill="none" stroke="#000000" d="M399.9152,-507.4535C429.4731,-501.7883 514.8403,-485.4262 585.24,-471.933"/>
<polygon fill="#000000" stroke="#000000" points="595.067,-470.0494 586.0928,-476.3515 590.1563,-470.9907 585.2457,-471.9319 585.2457,-471.9319 585.2457,-471.9319 590.1563,-470.9907 584.3986,-467.5124 595.067,-470.0494 595.067,-470.0494"/>
</g>
<!-- A38 -->
<g id="node39" class="node">
<title>A38</title>
<polygon fill="#d3d3d3" stroke="#000000" stroke-width="4" points="514.238,-392.5 514.238,-396.5 550.238,-396.5 550.238,-392.5 514.238,-392.5"/>
<text text-anchor="middle" x="522.877" y="-394.2" font-family="Helvetica,sans-Serif" font-size="1.00" fill="#000000"> </text>
<polyline fill="none" stroke="#000000" stroke-width="4" points="531.5159,-392.5 531.5159,-396.5 "/>
<text text-anchor="middle" x="540.6549" y="-394.2" font-family="Helvetica,sans-Serif" font-size="1.00" fill="#000000"> </text>
</g>
<!-- A37&#45;&gt;A38 -->
<g id="edge47" class="edge">
<title>A37&#45;&gt;A38:n</title>
<path fill="none" stroke="#000000" d="M464.0736,-433.956C488.0535,-426.4191 510.6759,-416.8649 519.4257,-405.9615"/>
<polygon fill="#000000" stroke="#000000" points="523.238,-396.5 523.6746,-407.4572 521.3693,-401.1377 519.5007,-405.7754 519.5007,-405.7754 519.5007,-405.7754 521.3693,-401.1377 515.3267,-404.0936 523.238,-396.5 523.238,-396.5"/>
</g>
<!-- A40 -->
<g id="node41" class="node">
<title>A40</title>
<path fill="none" stroke="#000000" d="M620.5351,-355C620.5351,-355 443.9409,-355 443.9409,-355 437.9409,-355 431.9409,-349 431.9409,-343 431.9409,-343 431.9409,-331 431.9409,-331 431.9409,-325 437.9409,-319 443.9409,-319 443.9409,-319 620.5351,-319 620.5351,-319 626.5351,-319 632.5351,-325 632.5351,-331 632.5351,-331 632.5351,-343 632.5351,-343 632.5351,-349 626.5351,-355 620.5351,-355"/>
<text text-anchor="middle" x="532.238" y="-334" font-family="Helvetica,sans-Serif" font-size="10.00" fill="#000000">Monitor Post Navigation risk for N days</text>
</g>
<!-- A38&#45;&gt;A40 -->
<g id="edge50" class="edge">
<title>A38&#45;&gt;A40</title>
<path fill="none" stroke="#000000" d="M532.238,-392.0293C532.238,-387.2727 532.238,-376.3488 532.238,-365.4769"/>
<polygon fill="#000000" stroke="#000000" points="532.238,-355.2724 536.7381,-365.2723 532.238,-360.2724 532.2381,-365.2724 532.2381,-365.2724 532.2381,-365.2724 532.238,-360.2724 527.7381,-365.2724 532.238,-355.2724 532.238,-355.2724"/>
</g>
<!-- A39&#45;&gt;A38 -->
<g id="edge49" class="edge">
<title>A39&#45;&gt;A38:n</title>
<path fill="none" stroke="#000000" d="M601.7022,-433.9939C576.1105,-426.6902 552.6369,-417.2789 543.8726,-405.9711"/>
<polygon fill="#000000" stroke="#000000" points="540.238,-396.5 548.0222,-404.2238 542.0294,-401.1681 543.8209,-405.8361 543.8209,-405.8361 543.8209,-405.8361 542.0294,-401.1681 539.6196,-407.4484 540.238,-396.5 540.238,-396.5"/>
</g>
<!-- A41 -->
<g id="node42" class="node">
<title>A41</title>
<polygon fill="none" stroke="#000000" points="532.238,-271 514.238,-253 532.238,-235 550.238,-253 532.238,-271"/>
</g>
<!-- A40&#45;&gt;A41 -->
<g id="edge51" class="edge">
<title>A40&#45;&gt;A41</title>
<path fill="none" stroke="#000000" d="M532.238,-318.7733C532.238,-307.8758 532.238,-293.7946 532.238,-281.4587"/>
<polygon fill="#000000" stroke="#000000" points="532.238,-271.1912 536.7381,-281.1911 532.238,-276.1912 532.2381,-281.1912 532.2381,-281.1912 532.2381,-281.1912 532.238,-276.1912 527.7381,-281.1912 532.238,-271.1912 532.238,-271.1912"/>
</g>
<!-- A41&#45;&gt;A35 -->
<g id="edge53" class="edge">
<title>A41&#45;&gt;A35</title>
<path fill="none" stroke="#000000" d="M541.5153,-244.2135C553.3318,-232.0256 572.238,-208.7378 572.238,-184.5 572.238,-184.5 572.238,-184.5 572.238,-69.5 572.238,-35.3751 458.0709,-21.4398 406.2692,-16.8733"/>
<polygon fill="#000000" stroke="#000000" points="396.2254,-16.0372 406.5644,-12.3824 401.2082,-16.452 406.191,-16.8669 406.191,-16.8669 406.191,-16.8669 401.2082,-16.452 405.8176,-21.3514 396.2254,-16.0372 396.2254,-16.0372"/>
<text text-anchor="middle" x="607.525" y="-124" font-family="Helvetica,sans-Serif" font-size="10.00" fill="#000000">[below threhold]</text>
</g>
<!-- A42 -->
<g id="node43" class="node">
<title>A42</title>
<polygon fill="#d3d3d3" stroke="#000000" stroke-width="4" points="447.238,-182.5 447.238,-186.5 483.238,-186.5 483.238,-182.5 447.238,-182.5"/>
<text text-anchor="middle" x="464.877" y="-184.2" font-family="Helvetica,sans-Serif" font-size="1.00" fill="#000000"> </text>
</g>
<!-- A41&#45;&gt;A42 -->
<g id="edge52" class="edge">
<title>A41&#45;&gt;A42:n</title>
<path fill="none" stroke="#000000" d="M519.6358,-247.4883C502.4261,-239.1158 472.9654,-221.4772 466.5115,-196.4499"/>
<polygon fill="#000000" stroke="#000000" points="465.238,-186.5 470.9712,-195.8477 465.8728,-191.4595 466.5077,-196.4191 466.5077,-196.4191 466.5077,-196.4191 465.8728,-191.4595 462.0441,-196.9904 465.238,-186.5 465.238,-186.5"/>
<text text-anchor="middle" x="508.191" y="-208" font-family="Helvetica,sans-Serif" font-size="10.00" fill="#000000">[over threhold]</text>
</g>
<!-- A43 -->
<g id="node44" class="node">
<title>A43</title>
<path fill="none" stroke="#000000" d="M364.8129,-145C364.8129,-145 285.6631,-145 285.6631,-145 279.6631,-145 273.6631,-139 273.6631,-133 273.6631,-133 273.6631,-121 273.6631,-121 273.6631,-115 279.6631,-109 285.6631,-109 285.6631,-109 364.8129,-109 364.8129,-109 370.8129,-109 376.8129,-115 376.8129,-121 376.8129,-121 376.8129,-133 376.8129,-133 376.8129,-139 370.8129,-145 364.8129,-145"/>
<text text-anchor="middle" x="325.238" y="-124" font-family="Helvetica,sans-Serif" font-size="10.00" fill="#000000">Send Notification</text>
</g>
<!-- A42&#45;&gt;A43 -->
<g id="edge54" class="edge">
<title>A42&#45;&gt;A43</title>
<path fill="none" stroke="#000000" d="M460.2553,-182.4535C447.1326,-177.0638 410.4376,-161.9927 378.6103,-148.9208"/>
<polygon fill="#000000" stroke="#000000" points="369.3547,-145.1194 380.3146,-144.756 373.9798,-147.019 378.6049,-148.9186 378.6049,-148.9186 378.6049,-148.9186 373.9798,-147.019 376.8953,-153.0812 369.3547,-145.1194 369.3547,-145.1194"/>
</g>
<!-- A45 -->
<g id="node46" class="node">
<title>A45</title>
<path fill="none" stroke="#000000" d="M524.1085,-145C524.1085,-145 406.3675,-145 406.3675,-145 400.3675,-145 394.3675,-139 394.3675,-133 394.3675,-133 394.3675,-121 394.3675,-121 394.3675,-115 400.3675,-109 406.3675,-109 406.3675,-109 524.1085,-109 524.1085,-109 530.1085,-109 536.1085,-115 536.1085,-121 536.1085,-121 536.1085,-133 536.1085,-133 536.1085,-139 530.1085,-145 524.1085,-145"/>
<text text-anchor="middle" x="465.238" y="-124" font-family="Helvetica,sans-Serif" font-size="10.00" fill="#000000">Locate closest test center</text>
</g>
<!-- A42&#45;&gt;A45 -->
<g id="edge56" class="edge">
<title>A42&#45;&gt;A45</title>
<path fill="none" stroke="#000000" d="M465.238,-182.0293C465.238,-177.2727 465.238,-166.3488 465.238,-155.4769"/>
<polygon fill="#000000" stroke="#000000" points="465.238,-145.2724 469.7381,-155.2723 465.238,-150.2724 465.2381,-155.2724 465.2381,-155.2724 465.2381,-155.2724 465.238,-150.2724 460.7381,-155.2724 465.238,-145.2724 465.238,-145.2724"/>
</g>
<!-- A44 -->
<g id="node45" class="node">
<title>A44</title>
<polygon fill="#d3d3d3" stroke="#000000" stroke-width="4" points="363.238,-67.5 363.238,-71.5 399.238,-71.5 399.238,-67.5 363.238,-67.5"/>
<text text-anchor="middle" x="371.877" y="-69.2" font-family="Helvetica,sans-Serif" font-size="1.00" fill="#000000"> </text>
<polyline fill="none" stroke="#000000" stroke-width="4" points="380.5159,-67.5 380.5159,-71.5 "/>
<text text-anchor="middle" x="389.6549" y="-69.2" font-family="Helvetica,sans-Serif" font-size="1.00" fill="#000000"> </text>
</g>
<!-- A43&#45;&gt;A44 -->
<g id="edge55" class="edge">
<title>A43&#45;&gt;A44:n</title>
<path fill="none" stroke="#000000" d="M351.4863,-108.9931C359.729,-101.6137 367.5143,-92.2897 370.7109,-81.6379"/>
<polygon fill="#000000" stroke="#000000" points="372.238,-71.5 375.1982,-82.0588 371.4932,-76.4442 370.7484,-81.3884 370.7484,-81.3884 370.7484,-81.3884 371.4932,-76.4442 366.2986,-80.7181 372.238,-71.5 372.238,-71.5"/>
</g>
<!-- A44&#45;&gt;A35 -->
<g id="edge58" class="edge">
<title>A44&#45;&gt;A35</title>
<path fill="none" stroke="#000000" d="M381.238,-67.1582C381.238,-62.3718 381.238,-50.9971 381.238,-40.0875"/>
<polygon fill="#000000" stroke="#000000" points="381.238,-30.0005 385.7381,-40.0005 381.238,-35.0005 381.2381,-40.0005 381.2381,-40.0005 381.2381,-40.0005 381.238,-35.0005 376.7381,-40.0006 381.238,-30.0005 381.238,-30.0005"/>
</g>
<!-- A45&#45;&gt;A44 -->
<g id="edge57" class="edge">
<title>A45&#45;&gt;A44:n</title>
<path fill="none" stroke="#000000" d="M415.3929,-108.7479C404.2014,-102.0083 394.5329,-93.1367 390.8385,-81.7094"/>
<polygon fill="#000000" stroke="#000000" points="389.238,-71.5 395.2326,-80.6824 390.0124,-76.4397 390.7869,-81.3793 390.7869,-81.3793 390.7869,-81.3793 390.0124,-76.4397 386.3411,-82.0763 389.238,-71.5 389.238,-71.5"/>
</g>
</g>
</svg>
